<svg xmlns="http://www.w3.org/2000/svg" viewBox="0 0 64 64" width="64" height="64" fill="none" stroke="#16a34a" stroke-width="2.5" stroke-linecap="round" stroke-linejoin="round">
  <path d="M24 8 v4 l-4 2 l-3 -3 l-4 4 l3 3 l-2 4 h-4 v6 h4 l2 4 l-3 3 l4 4 l3 -3 l4 2 v4 h6 v-4 l4 -2 l3 3 l4 -4 l-3 -3 l2 -4 h4 v-6 h-4 l-2 -4 l3 -3 l-4 -4 l-3 3 l-4 -2 v-4 z"/>
  <circle cx="27" cy="25" r="5"/>
  <path d="M44 36 v3 l-3 1 l-2 -2 l-3 3 l2 2 l-1 3 h-3 v4 h3 l1 3 l-2 2 l3 3 l2 -2 l3 1 v3 h4 v-3 l3 -1 l2 2 l3 -3 l-2 -2 l1 -3 h3 v-4 h-3 l-1 -3 l2 -2 l-3 -3 l-2 2 l-3 -1 v-3 z"/>
  <circle cx="46" cy="46" r="3.5"/>
</svg>
